<?xml version="1.0" encoding="UTF-8"?>
<svg width="1200pt" height="1200pt" version="1.1" viewBox="0 0 1200 1200" xmlns="http://www.w3.org/2000/svg">
 <path d="m1097.6 467.08v37.293c0 6.6992-3.5742 12.887-9.375 16.238-5.8008 3.3477-12.949 3.3477-18.75 0-5.8008-3.3516-9.375-9.5391-9.375-16.238v-37.293c0-6.6992 3.5742-12.891 9.375-16.238 5.8008-3.3516 12.949-3.3516 18.75 0 5.8008 3.3477 9.375 9.5391 9.375 16.238zm-18.75-163.5c-4.9727 0-9.7422 1.9766-13.258 5.4922s-5.4922 8.2852-5.4922 13.258v84.543c0 6.6992 3.5742 12.887 9.375 16.238 5.8008 3.3477 12.949 3.3477 18.75 0 5.8008-3.3516 9.375-9.5391 9.375-16.238v-84.543c0-4.9727-1.9766-9.7422-5.4922-13.258s-8.2852-5.4922-13.258-5.4922zm-56.25-44.832v544.31c0 4.9727-1.9766 9.7422-5.4922 13.258-3.5156 3.5156-8.2852 5.4922-13.258 5.4922h-497.23l-159 133.69c-3.4023 2.8945-7.7188 4.4883-12.188 4.5-2.7383 0.023438-5.4414-0.62109-7.875-1.875-3.2266-1.4922-5.9609-3.8711-7.8867-6.8594s-2.9609-6.4609-2.9883-10.016v-119.44h-120.19c-4.9727 0-9.7422-1.9766-13.258-5.4922-3.5156-3.5156-5.4922-8.2852-5.4922-13.258v-544.31c0-4.9727 1.9766-9.7422 5.4922-13.258 3.5156-3.5156 8.2852-5.4922 13.258-5.4922h807.38c4.9727 0 9.7422 1.9766 13.258 5.4922 3.5156 3.5156 5.4922 8.2852 5.4922 13.258zm-37.5 18.75h-769.86v506.81h120.19c4.9727 0 9.7422 1.9766 13.258 5.4922 3.5156 3.5156 5.4922 8.2852 5.4922 13.258v97.875l133.69-112.12c3.3125-2.918 7.5859-4.5195 12-4.5h485.25zm-863.96 199.48c-4.9727 0-9.7422 1.9766-13.258 5.4922s-5.4922 8.2852-5.4922 13.258v34.387c0 6.6992 3.5742 12.891 9.375 16.238 5.8008 3.3516 12.949 3.3516 18.75 0 5.8008-3.3477 9.375-9.5391 9.375-16.238v-34.387c0-4.9727-1.9766-9.7422-5.4922-13.258s-8.2852-5.4922-13.258-5.4922zm0 104.27c-4.9727 0-9.7422 1.9766-13.258 5.4922-3.5156 3.5156-5.4922 8.2852-5.4922 13.258v153.75c0 6.6992 3.5742 12.887 9.375 16.238 5.8008 3.3477 12.949 3.3477 18.75 0 5.8008-3.3516 9.375-9.5391 9.375-16.238v-153.75c0-4.9727-1.9766-9.7422-5.4922-13.258-3.5156-3.5156-8.2852-5.4922-13.258-5.4922zm382.89 88.125 52.836-3.75 137.25-137.25-69-69-137.25 137.44-3.8633 52.5c-0.39453 5.4258 1.5859 10.754 5.4297 14.605 3.8438 3.8516 9.168 5.8398 14.598 5.457zm237.15-188.06c3.4922-3.5117 5.4531-8.2656 5.4531-13.219s-1.9609-9.707-5.4531-13.219l-42.562-42.562c-3.5117-3.4922-8.2656-5.4531-13.219-5.4531s-9.707 1.9609-13.219 5.4531l-20.625 20.625 69 69z" fill="#ffffff"/>
</svg>
