<?xml version="1.0" encoding="UTF-8"?>
<svg width="1200pt" height="1200pt" version="1.1" viewBox="0 0 1200 1200" xmlns="http://www.w3.org/2000/svg">
 <path d="m429.94 628.12h53.062c14.25 167.44 152.62 296.06 322.69 296.06 178.88 0 324.19-145.5 324.19-324.19s-145.5-324.19-324.19-324.19c-170.06 0-308.44 128.62-322.69 296.06h-53.062v-151.88l-360 180 359.81 180v-151.88zm109.5-56.25c14.062-135.94 127.5-239.81 266.25-239.81 147.75 0 267.94 120.19 267.94 267.94s-120.19 267.94-267.94 267.94c-138.75 0-252.19-103.88-266.25-239.81h325.12v-56.25zm-165.75 117-177.94-88.875 177.75-88.875v177.75z" fill="#FFFFFF"/>
</svg>
