<?xml version="1.0" encoding="utf-8"?>
<!-- Generator: Adobe Illustrator 26.5.0, SVG Export Plug-In . SVG Version: 6.00 Build 0)  -->
<svg version="1.1" id="Layer_1" xmlns="http://www.w3.org/2000/svg" xmlns:xlink="http://www.w3.org/1999/xlink" x="0px" y="0px"
	 viewBox="0 0 256 256" style="enable-background:new 0 0 256 256;" xml:space="preserve">
<style type="text/css">
	.st1{fill:#e7fbfb;}
</style>
<path class="st1" d="M138.5,113c15.5,1.9,28.2,18.8,16.6,32.5c-6.4,7.1-15.8,10.8-25.2,11.2c-15.7,0.1-30.4-9.8-37.4-23.8
	c-6-11.7-3.9-25.6,3.7-36.3c9.5-13.3,24-22,39.8-25.5c33.3-6.6,65.4,17.6,77.4,47.6c18.9,45.2-14.8,98.5-61.2,108.2
	c-36,7.4-74.8-9.4-95.8-39C33,155.5,30.4,109.5,52.7,76.1c22.8-34.7,66.9-55.1,107.9-47c19.2,3.7,37.5,12.8,51.9,25.9
	c-31.9-17.9-71.8-21.5-103.6-2.2c-36.3,21.1-54.7,60.8-37.7,100.8c5.9,13.6,15.7,25.5,28.4,33.1c13.5,7.9,30.5,12.2,45.8,9
	c28.1-6.1,50.7-38.2,40.5-66.5c-7.4-21.6-31.2-41-54.6-32.2c-12,4.2-27.9,14.7-23.1,29.3c3.2,9.4,12.2,17.2,22.2,18.7
	c5,0.7,10.5-0.5,15.2-2.6C161.6,134.8,151.2,117.5,138.5,113L138.5,113z"/>
</svg>
