<?xml version="1.0" encoding="utf-8"?>
<!-- Generator: Adobe Illustrator 26.5.0, SVG Export Plug-In . SVG Version: 6.00 Build 0)  -->
<svg version="1.1" id="Layer_1" xmlns="http://www.w3.org/2000/svg" xmlns:xlink="http://www.w3.org/1999/xlink" x="0px" y="0px"
	 viewBox="0 0 256 256" style="enable-background:new 0 0 256 256;" xml:space="preserve">
<style type="text/css">
	.st0{opacity:0.5;fill:#e7fbfb;}
	.st1{fill:#e7fbfb;}
</style>
<g>
	<path class="st0" d="M89.1,149.3l18.5-1.3l48-48l-24.1-24.1l-48,48l-1.4,18.4c-0.1,1.9,0.6,3.8,1.9,5.1
		C85.3,148.8,87.2,149.4,89.1,149.3L89.1,149.3z"/>
	<path class="st0" d="M172,83.6c1.2-1.2,1.9-2.9,1.9-4.6s-0.7-3.4-1.9-4.6l-14.9-14.9c-1.2-1.2-2.9-1.9-4.6-1.9s-3.4,0.7-4.6,1.9
		l-7.2,7.2l24.1,24.1L172,83.6z"/>
</g>
<path class="st1" d="M52.5,25v171.6l92.7,34.3h58.3V25H52.5z M80.1,196.2c4.8-2.5,11-6.6,20.5-13.3l33.6,33.6L80.1,196.2z
	 M193.2,220.7H152l-51.5-51.5c-24,20.6-27.5,20.6-37.7,20.6V35.4h130.4V220.7z"/>
</svg>
