<?xml version="1.0" encoding="UTF-8"?>
<svg width="1200pt" height="1200pt" version="1.1" viewBox="0 0 1200 1200" xmlns="http://www.w3.org/2000/svg">
 <g fill="#ffffff">
  <path d="m700 250c0 55.227-44.773 100-100 100s-100-44.773-100-100 44.773-100 100-100 100 44.773 100 100"/>
  <path d="m700 600c0 55.227-44.773 100-100 100s-100-44.773-100-100 44.773-100 100-100 100 44.773 100 100"/>
  <path d="m700 950c0 55.227-44.773 100-100 100s-100-44.773-100-100 44.773-100 100-100 100 44.773 100 100"/>
 </g>
</svg>
