<?xml version="1.0" encoding="utf-8"?>
<!-- Generator: Adobe Illustrator 26.5.0, SVG Export Plug-In . SVG Version: 6.00 Build 0)  -->
<svg version="1.1" id="Layer_2" xmlns="http://www.w3.org/2000/svg" xmlns:xlink="http://www.w3.org/1999/xlink" x="0px" y="0px"
	 viewBox="0 0 256 256" style="enable-background:new 0 0 256 256;" xml:space="preserve">
<style type="text/css">
	.st0{fill-rule:evenodd;clip-rule:evenodd;fill:#e7fbfb;}
	.st1{opacity:0.5;fill-rule:evenodd;clip-rule:evenodd;fill:#e7fbfb;}
</style>
<g>
	<path class="st0" d="M128.3,65.2c14.4-15.6,31.3-22.7,50.8-20c20.2,2.8,37.3,17.3,43.4,36.7c4.7,14.9,2.7,31.7-3.5,46.9
		c-9.8,23.7-38.7,57.5-91,81.1c-52.3-23.6-81.2-57.3-91-81.1c-6.3-15.3-8.2-32-3.5-46.9C39.6,62.4,56.7,48,76.9,45.2
		c19.5-2.8,36.4,4.4,50.8,20c0,0,0.3,0.3,0.3,0.3C128,65.5,128.3,65.2,128.3,65.2L128.3,65.2z M128,43C96.5,18.2,47,24.7,24.3,61.9
		c-7.5,12.4-10.4,26.7-9.7,41c1.2,24.7,11.8,46.3,27.5,65c21.1,25.1,51.6,44.9,85.2,59.6c0,0,0.4,0.2,0.7,0.3
		c0.2-0.1,0.6-0.2,0.7-0.3c33.4-14.7,64.1-34.5,85.2-59.6c15.7-18.7,26.4-40.3,27.5-65c0.7-14.3-2.2-28.6-9.7-41
		C209,24.7,159.5,18.2,128,43L128,43z"/>
	<path class="st1" d="M127,134.3l-14.4-7.1c-5,7.3-8.6,12.2-19.1,9.3c-8.2-2.3-10.7-11.3-11-18.8c-0.4-10.3,3.2-22.3,15.5-21.6
		c7.9,0.4,11.3,5.1,13,9.2l15.7-8c-7.7-14.7-25.8-19.7-41.2-15.6C69.3,86,61.1,101,61.3,117.2c0.3,16.6,8.2,30.8,25.3,34.6
		c8.3,1.8,17.4,1.4,25.1-2.5C117.7,146.3,124.3,140.5,127,134.3L127,134.3z M194.7,134.3l-14.4-7.1c-5,7.3-8.6,12.2-19.1,9.3
		c-8.2-2.3-10.7-11.3-11-18.8c-0.4-10.3,3.2-22.3,15.5-21.6c7.9,0.4,11.3,5.1,13,9.2l15.7-8c-7.7-14.7-25.8-19.7-41.2-15.6
		C137,86,128.7,101,129,117.2c0.3,16.6,8.2,30.8,25.3,34.6c8.3,1.8,17.4,1.4,25.1-2.5C185.4,146.3,192,140.5,194.7,134.3
		L194.7,134.3z"/>
</g>
</svg>
