<?xml version="1.0" encoding="utf-8"?>
<!-- Generator: Adobe Illustrator 26.5.0, SVG Export Plug-In . SVG Version: 6.00 Build 0)  -->
<svg version="1.1" id="Layer_2_00000019675262294795214120000017254847064576791953_"
	 xmlns="http://www.w3.org/2000/svg" xmlns:xlink="http://www.w3.org/1999/xlink" x="0px" y="0px" viewBox="0 0 256 256"
	 style="enable-background:new 0 0 256 256;" xml:space="preserve">
<style type="text/css">
	.st0{fill:none;stroke:#e7fbfb;stroke-width:13;stroke-miterlimit:10;}
	.st1{opacity:0.5;enable-background:new    ;}
	.st2{fill:#e7fbfb;}
</style>
<circle class="st0" cx="128" cy="128" r="112.7"/>
<g class="st1">
	<path class="st2" d="M71.8,173.7c-0.2,0.2-0.2,0.2-0.2,0.5c0,0-0.2,0-0.5,0c0-0.2,0-0.2,0.2-0.5C71.6,173.7,71.8,173.7,71.8,173.7z
		 M171.5,80.7c-1.4,0.2-0.7,2.2-1.4,3.2c0.7,0.2,0.2-1,0.7-0.7c-0.9,3-2.5,5.2-3.7,7.9c-0.2,0-0.5-0.2-0.7-0.2
		c-3,4.2-6,8.7-9.9,11.9c-2.5,0.2-5.3,0.5-7.8,0.7c-1.6-1-4.4-0.7-6.2-1.2c-0.9-2-2.1-5.7,0.2-9.2c0.7,0,1.1,0,1.4,0.2
		c3.4-2.2,4.4-7.4,6.4-10.6c-0.2-0.5-1.4,0.2-1.1-0.7c-4.8,2.5-7.8,7.7-12.6,10.9c-6.2,8.2-14,13.9-19,23.5c-0.5,0-0.7,0.7-1.4,0.7
		c-0.2,1.5-1.6,1.7-1.1,3c-3.4,3-5.7,7.9-8.7,11.9c0.5-0.5,0.7-1,0.7-1.7c-5.7,5.9-9.4,15.6-13.3,22.5c0.2,2.2-3,6.4-2.5,9.2
		c-2.5,6.4-3.4,13.1-3,19.5c7.3,0.5,12.6-4.5,17.4-8.2c0.5,0,0.2,0.5,0.5,0.5c0.7-0.2-0.2-0.7,0.2-1.2c0.7-0.5,0.5,0,0.7,0.2
		c3.7-2.7,7.3-5.4,10.8-8.7c1.1-0.5,0,0.7,0.5,0.7c0.5-0.5,1.4-1.2,0.9-2c0.9,0.2,1.1-0.7,1.6-1c2.1,0.5,4.8-2.7,6.2-5.2
		c0.2,0,0.2,0,0.2,0c0.5,1,2.3-1.5,3-2c-0.7-0.5-2.1,1.5-3,2c0.9-2.7,4.6-4,6-6.7c0.9,1.2-1.1,1.2-1.6,3c2.5-1.7,6-3.5,6.6-5.9
		c0.5,0,0.5,0.2,0.9,0.2c-0.7,1.2-1.8,2.2-3,3.5c2.1,0,3.7-3.7,5.5-5.2c0.7,0.2,0.9-0.2,1.4,0.2c0-1.2,0.7-1.5,0.5-2.2
		c0.5,0,0.7-0.5,0.9-0.2c-0.2-0.7,0-1.7,0.9-2c0,0.7-0.7,0.7-0.5,1.5c0.7,0.2,0.2-0.7,0.9-0.5c0,1-0.7,1.2-1.1,1.7
		c1.1-0.2,1.8-1,1.6-2.2c2.5-1.7,4.4-4.2,6.4-5.9c0,1-0.7,1.2-1.1,1.7c1.1,0,1.6-1,2.1-2.2c0.9,0,0,0.2-0.2,0.7
		c0.5,0,0.7-0.2,0.9-0.2c0.5-0.7,0-0.7-0.2-1c0.2-1,1.1-0.7,1.1-1.5c0.7,0.2-0.2,0.7-0.2,1.5c1.4-0.5,1.1-1.2,1.4-2.5
		c1.6,0,1.6-1.7,3-2.2c0-0.2,0.2-0.5,0-0.5c3.4-3.2,6.9-6.2,10.1-9.4c0-0.2-0.7-0.2-0.7,0c-0.2-1.2,1.6-1.7,2.3-3
		c0.2,0,0.2,0.2,0,0.7c0.5-0.2,0.9-0.2,1.4-0.2c0.2-0.7-0.7-0.2-0.5-1c2.1-0.7,2.3-2.2,3.2-4c1.1-0.5-0.2,1.2,0.5,1.2
		c2.3-3.5,5.3-5.4,8-7.7c-1.4,2-2.8,4.2-5,4.9c0,0.2,0.5,0.2,0.7,0.5c-1.1,2.7-3.4,4.2-4.6,7.4c-1.8,2-3.2,3.5-4.6,6.4
		c-0.9,1-2.8,1.2-2.5,3.2c-3.2,3.5-5,9.2-8.7,12.4c0.5,1-0.2,2-1.1,2.7c0.2-0.2,0.2-0.5,0-0.5s-0.2,0.2-0.5,0.5
		c-0.7,0.2-2.1,1.5-1.6,2.5c-0.9,1-2.8,2-2.5,3.5c0.9-0.2,1.4-1.2,2.1-1.7c0.9,0.2-0.5,2-1.4,2c-1.6,3.2-4.6,4.7-6.9,7.4
		c0,0.5,0.2,0.7,0.9,0.7c0,1-0.7,1.2-1.1,2.2c-6,4.2-10.3,10.4-16.5,14.3c-1.4,2-3.4,3.2-4.6,4.9c-0.7,0.2-0.2-0.7-0.7-0.7
		c-1.1,2.2-3.9,4.9-6.9,5.7c-0.5,0.7,0,0.7,0,1.5c-2.3,1.5-4.6,3.2-6.6,4.9c0-1.2,2.5-2,3.2-3.5c-0.5-0.7-1.4,1.2-1.6,0
		c-0.5,0.7-1.4,1.5-2.1,1c-2.3,4-9.4,2.7-11.5,8.7c-0.7,0-2.8,1-2.5,0c-2.1,2-5.3-0.5-8,0.7c-0.7-0.2-0.2-1.2-1.4-0.5
		c0.5-0.7,0-1,0-1.5c-0.9,0-1.1,0.7-1.4,1.7c-0.7-2.7-5.5-2.2-7.6-4.2c0.5-1.7-0.9-1.7-1.6-2.5c-0.5,0.2-0.2,1,0,1
		c-0.2,0.7,0-0.5-0.9-0.2c1.1-2.5-2.1-2.7-1.1-4.9c-0.2,0-0.2,0.5-0.7,0.5c0-0.7,0.5-0.5,0.7-1.2c0.7,0.2,0.9,0.7,0.2,2
		c1.4-0.5,1.8-0.2,1.1,1.2c1.4-0.5,0.9-1,1.1,0c0.5-2.2-1.8-3.7-3-5.4c-0.5,0-0.5,0.2-0.5,0.7c-0.9-1,0-2.2-0.7-3.5
		c0.2,0.2,0.9,0.2,1.4,0.2c0.2-1.5-0.2-2.2-1.1-3c-0.5,0,0.9,1.5-0.7,1.2c0,1.2-0.5,3.2-0.2,4.9c-1.1,0.5-0.7-1.5-0.2-2.7
		c-0.2-0.2-0.5-0.2-0.9,0.2c1.4-3.7-1.6-6.9,0.9-9.9c0-0.7-0.9-1.5-0.2-2.2c0.2-0.7-0.5,0.2-0.9,0c0.9-1.2,1.1-3.2,0.7-4.2
		c0.9-2.2,1.1-5.4,0.7-7.7c1.8-3.7,2.5-7.4,3.4-11.9c0.2,0,0.5,0,0.7,0c0.2-0.7-0.2-0.5,0.2-1c0-0.5-0.7-0.2-0.9-0.5
		c1.4-1.5,3-4.7,2.8-5.9c1.4-0.2,1.6-1.2,2.5-1.7c0.2-0.7-0.7-0.5-0.5-1.2c1.4-0.7,3-2.2,2.3-3.7c1.8-1.2,2.5-3.2,3.4-4.9
		c0.9-0.2,0.7,0.5,1.1,0.7c0.7-0.7,1.4-1.5,1.8-2.5c-0.5-1-1.6,0.7-2.3,0.7c0.7-1.2,1.1-2.5,1.8-3.2c0.5,0.2-0.7,1-0.2,1.2
		c0.5,0,0.5-0.2,0.9-0.2c0.5-0.7,0-1.2,0.5-1.7c-0.2,0-0.5,0-0.5,0.5c-0.5-1.5,2.1-3.7,3.4-4.9c0-0.5,0-1.2-0.9-1
		c1.6-2.5,3.4-4.2,5-6.2c-0.5-0.5,0.5-2.2,1.1-2.5c0.2,0.7-0.9,1-0.5,1.5c2.1-1.7,1.6-4,3.7-4.9c0.5-1-0.2-0.7,0-1.5
		c0.7-0.5,1.6-1,2.3-1.5c0.2-1,0.7-1,0.7-2c3.4-2.7,6-6.7,8.7-10.1c3.9-2.7,6.6-7.2,10.1-9.9c0.5-0.5,0.7-1,0.9-1.7
		c1.8,0.2,3-2.2,4.6-3.2c0.5-0.7-0.5-0.5-0.9-0.5c1.1-0.7,2.3-1,3.4-1.7c0-0.7-0.5-0.7,0-1.5c3.4-0.7,5-4.2,7.6-5.2
		c0.2-0.2,0.2-0.7,0.2-1c0.9,0,1.8-0.5,1.6-1.2c2.3-0.7,3.9-3,6-4.2c0.5-1.2-1.1,0.7-0.9-0.5c3.2-1,6.2-2.2,8.3-0.7
		c0.5-0.2,0.7-0.7,1.4-0.7c0.5,0.5,0,0.2,0,1c0.7,0.2,0.9-0.5,1.6-0.5c0.5,0.5,0,0.2-0.5,1c1.8,0.2,3,0.2,4.6,1c0,0.5-1.1,0.2-0.9,1
		c0,0.5,0.9,0,1.4,0.2c0.5,0,0.2-1,0.5-1c1.1-0.2,1.1,0.5,1.4,1c1.6-1.2,2.5,0.2,4.4,0.2c0.5,2.7,2.3,4.2,4.1,5.7
		c0.7,4,1.1,7.7-1.4,12.6c1.8,0,1.6-3.2,2.3-4c0.2,2.2-1.6,4.7-2.3,7.2c0,0,0,0-0.2,0C171.1,82.4,171.3,81.5,171.5,80.7z
		 M73.4,176.2c-0.2,0-0.2-0.5-0.7-0.5c-0.2,1.2-0.7,2-0.2,2.5C72.7,177,73,177,73.4,176.2z M72.5,186.6c0.5-0.7,0.9-0.5,0.7-1.2
		C73.9,185.4,73.2,186.6,72.5,186.6z M73.4,168.1c0,0.5-0.2,1.2,0.5,1.2C73.9,168.5,74.1,167.8,73.4,168.1z M73.4,177.7
		c0.2,0,0.5,0,0.5-0.2C73.6,177.5,73.4,177.5,73.4,177.7z M75.5,172.8c-0.2-2.2-0.2-4.9-1.1-6.7c0,2.2,0,4.5-0.7,7.2
		C74.8,172.8,74.6,172.8,75.5,172.8z M73.9,189.6c0-0.2-0.2-0.5-0.2-1C74.1,188.8,74.3,188.8,73.9,189.6z M74.1,153
		c-0.5,0-0.5-0.2-0.2-0.7C74.3,152.2,74.3,152.5,74.1,153z M74.3,186.6c0.2,0.5-0.9,0.2-0.2-0.2C74.6,186.4,74.1,186.6,74.3,186.6z
		 M74.8,171.8c0,0.2-0.2,0-0.5,0C74.3,171.5,74.8,171.5,74.8,171.8z M74.6,175.5c0,0.7,0.2,1.2,0.9,1.2
		C75.5,176,75.7,175.2,74.6,175.5z M76.2,159.1c-0.7-0.2-1.1,1-0.5,1C76.2,159.9,76.4,159.6,76.2,159.1z M75.7,177.5
		c-0.5,0.7-0.2,1.2,0.2,1.5C76.4,178.4,76.6,177.5,75.7,177.5z M75.5,180.9c0.2,0,0.5,0,0.7-0.2C75.9,180.7,75.7,180.7,75.5,180.9z
		 M78,148.8c-0.5,0.7-1.6,0.7-2.3,1.7c0.9,0.5,1.4-0.7,2.5-0.5c0.7-1,1.1-4,2.1-5.2c0.2,0,0.5,0.2,0.7,0.2c0.5-0.7,1.1-1.5,0.5-1.7
		c-0.7,1.2-0.7,0.5-0.9,0.5C78.9,143.6,78.2,147.5,78,148.8z M76.2,154.7c0.2,1-0.9,2.7,0.2,2.7C76.4,156.4,77.1,154.9,76.2,154.7z
		 M76.4,178.9c0,1,0.5,1.7,0.9,2C77.3,179.9,77.1,179.2,76.4,178.9z M77.8,151c-0.2,1.2-1.6,2.7-0.7,3.5
		C77.8,153.5,78.7,151.7,77.8,151z M77.5,183.1c-0.2,0.2-0.7,1,0,1C77.8,183.6,78,183.1,77.5,183.1z M77.5,181.4
		c0.2,0,0.5,0,0.5-0.2C77.8,181.2,77.5,181.2,77.5,181.4z M78,192.8c0,0.2-0.2,0-0.5,0C77.5,192.5,78,192.5,78,192.8z M78.5,184.4
		c-0.5,0.7,0.2,1.5,0.7,1.7C79.4,185.1,79.1,184.6,78.5,184.4z M79.6,140.6c-0.2,0.7-0.9,1-1.1,2.2
		C79.8,143.1,80.8,141.1,79.6,140.6z M78.9,189.3c-0.2,0.2-0.2,0.5-0.2,0.7C79.4,190.3,79.8,188.8,78.9,189.3z M78.7,191.3
		c0,0.5,0.2,0.7,0.7,0.7C79.8,191.3,79.4,191.3,78.7,191.3z M79.4,166.1c-0.2-1.5,1.8-2.7,0.7-3.2c0,0.2-0.5,0.2-0.7,0.5
		C79.4,164.3,78.7,165.3,79.4,166.1z M79.8,161.6c0-0.2,0-0.2,0.2-0.5c0,0-0.2,0-0.5,0c-0.2,0.2-0.2,0.2-0.2,0.5
		C79.6,161.6,79.8,161.6,79.8,161.6z M79.8,192.3c0,0.2,0,0.5,0,0.7C80.5,193.3,81,191.8,79.8,192.3z M80.3,158.4
		c0,0.7-0.5,1.7,0.2,1.7C81.2,159.6,80.5,158.7,80.3,158.4z M80.5,141.8c0.2,0,0.5,0,0.7-0.2C81,141.6,80.8,141.6,80.5,141.8z
		 M83.7,134.4c-0.9,2.5-3.2,5.4-3,6.9C82.1,139.4,84,135.9,83.7,134.4z M81.4,133.9c0.2-0.7,2.1-1,1.6,0
		C82.1,133.7,82.4,133.7,81.4,133.9z M84.4,154.2c0-0.5,0-1,0.2-1.5c-0.9-0.2-1.6,1-1.1,1.5C84,154.2,84.2,154.2,84.4,154.2z
		 M89,126.5c0,0.2-0.2,0.2-0.5,0.2C88.5,126.5,88.8,126.5,89,126.5z M92.2,124c-0.7,0-2.1,1-1.6,1.7C91.3,125.5,91.8,125,92.2,124z
		 M92.7,117.8c-0.2,0.2-0.2,0.2-0.2,0.5c0,0-0.2,0-0.5,0c0-0.2,0-0.2,0.2-0.5C92.4,117.8,92.7,117.8,92.7,117.8z M93.6,121.3
		c-0.5-0.5-1.1,0-1.6,1C92.9,122,93.4,122,93.6,121.3z M93.1,122.8c-0.5,0-1.1,0-1.1,0.5C92.2,123.5,93.1,123.5,93.1,122.8z
		 M94.7,115.4c-0.2,0-0.5,0-0.7,0c-0.2,0.5-0.7,0.7-0.7,1.5C94.7,116.8,94.1,116.1,94.7,115.4z M95.2,119.8c-0.7,0-1.1,0.2-1.4,1.2
		C94.7,121,94.7,120.1,95.2,119.8z M95,113.6c-0.2,0.2-0.5,0.2-0.7,0.2C94.5,113.6,94.7,113.6,95,113.6z M96.1,114.4
		c-0.5,0-0.9,0.2-1.4,0.7c1.1-0.2-0.5,1.5,0.7,1.2c1.4-2.2,3.4-3.2,4.6-5.7c-0.2,0-0.5-0.5-0.9-0.2c-0.5,1-1.4,1.5-2.3,2.2
		C97.3,113.1,95.7,113.4,96.1,114.4z M97.5,115.1c-1.1,0.7-2.1,2.7-2.8,3.7C96.3,118.6,97.3,115.8,97.5,115.1z M96.6,195.3
		c-0.2,0-0.5,0-0.7,0c0,0.5-0.2,0.5-0.2,1C96.3,196.5,96.6,195.8,96.6,195.3z M99.1,196.3c-0.5,0-0.7,0.5-0.9,1
		C98.9,197.2,99.1,196.8,99.1,196.3z M100.7,117.6c-0.5-0.5-0.9,0.2-1.6-0.2c0,0.5-0.2,0.7-0.5,1.2
		C99.3,118.8,100.2,118.6,100.7,117.6z M100,109.9c1.1-0.2,1.8-1.5,2.3-2.7c-0.5,0-0.9,0.2-1.4,0.5
		C100.9,108.7,100.5,109.2,100,109.9z M100.2,197c0.2-0.5,0.7-1,0.7-1.5C101.8,195.5,101.2,197.5,100.2,197z M104.6,110.4
		c-0.7,1.5-2.3,2.2-3.2,4C102.5,113.6,105.3,111.6,104.6,110.4z M102.5,195.8c0-0.5,0.2-0.7,0.7-1
		C103.7,194.8,103.2,196,102.5,195.8z M104.4,196c0,0-0.2,0-0.5,0c0-0.2,0-0.2,0-0.5c0.2,0,0.2-0.2,0.2-0.2
		C104.6,195.3,104.6,195.5,104.4,196z M104.6,135.9c-0.9-1,1.4-2.5,1.8-3.7C106.7,133.4,105.1,134.4,104.6,135.9z M105.3,195.3
		c-0.7-0.2,0.9-0.7,0.5-1.2C106.7,193.8,105.7,195.3,105.3,195.3z M108,193.8c0,0.2-0.9,0-0.9,0.5c-0.5-0.2,0.7-1,0.2-1.7
		C108,192.5,108,193.3,108,193.8z M109,193c0-0.7,0.5-0.5,0.7-1.2C110.6,191.6,109.6,193.3,109,193z M110.3,192.3
		c-0.2-0.5,0.7-1.2,0.7-1.7C111.9,190.6,110.8,191.8,110.3,192.3z M112.6,187.8c0-0.2,0.2-0.2,0.2-0.5c-0.2,0-0.2-0.2-0.5-0.2
		c0,0.2-0.2,0.2-0.2,0.5C112.4,187.6,112.4,187.8,112.6,187.8z M117.4,186.1c-0.2,0-0.5,0-0.7,0c-0.5,0.5-1.1,0.7-0.7,1.2
		C116.7,187.3,117,186.9,117.4,186.1z M119.5,111.4c0-0.2,0-0.2,0-0.5c0,0-0.2,0-0.5,0c0,0.2,0,0.2,0,0.5
		C119.3,111.4,119.5,111.4,119.5,111.4z M123.2,160.6c-0.7-0.2-0.2-0.5,0-1c0.2,0,0.5,0,0.7,0C123.9,160.4,123.2,160.1,123.2,160.6z
		 M124.3,158.2c0.2,0.5,0,1.2-0.5,1.5C123.9,158.9,124.1,158.4,124.3,158.2z M124.3,179.7c0.2-0.2,0.2-0.2,0.2-0.5c0,0-0.2,0-0.5,0
		c0,0.2,0,0.2-0.2,0.5C124.1,179.7,124.3,179.7,124.3,179.7z M126.4,156.9c-0.2,0.2-0.5,0.2-0.7,0.2
		C125.9,156.9,126.1,156.9,126.4,156.9z M130.3,172.8c0,0.2,0,0.7,0.5,0.7C130.7,173,130.5,172.8,130.3,172.8z M131.7,171.8
		c-0.2,0-0.7,0-0.9,0.5C131.2,172.3,131.7,172,131.7,171.8z M133.5,169.5c0.2,0,0.5,0,0.7-0.2C133.9,169.3,133.7,169.3,133.5,169.5z
		 M133.9,150.5c0.7-0.5,0.7-1.5,1.6-1.5C135.3,149.5,134.9,150.5,133.9,150.5z M134.9,152c0,0.2-0.5,0.5-0.7,0.7
		C134.4,153.2,135.8,152,134.9,152z M135.5,169c0-0.2,0-0.2,0-0.5c0,0-0.2,0-0.5,0c0,0.2,0,0.2,0,0.5C135.3,169,135.5,169,135.5,169
		z M136.5,151.2c-0.5,0-0.5,0.2-0.9,0.5C136,151.7,136.5,151.5,136.5,151.2z M137.2,166.8c-0.7,0-1.6,0.7-1.1,1.5
		C136.9,168.3,136.7,167.3,137.2,166.8z M139,161.9c0-0.2,0-0.5,0.2-0.7c-0.2,0-0.5,0-0.7,0c-0.2,0.2,0,0.5,0,0.7
		C138.8,161.9,139,161.9,139,161.9z M140.4,159.4c-0.7-0.2-1.1,1-0.5,1C140.1,160.1,140.6,159.9,140.4,159.4z M140.4,146.8
		c-0.2,0-0.2-0.7,0-1C141.3,145.5,140.6,146.5,140.4,146.8z M140.4,164.1c0.2,0,0.5,0,0.5,0c0-0.2,0-0.2,0.2-0.2
		c0.2-0.2,0.2-0.2,0.2-0.5c0,0-0.2,0-0.5,0c0,0,0,0.2-0.2,0.2C140.4,163.8,140.4,163.8,140.4,164.1z M142.9,142.1c0,0.2,0,0.2,0,0.5
		c0,0-0.2,0-0.5,0c0-0.2,0-0.2,0-0.5C142.7,142.1,142.9,142.1,142.9,142.1z M143.1,161.9c0-0.2,0-0.2,0-0.5c0,0-0.2,0-0.5,0
		c0,0.2,0,0.2,0,0.5C142.9,161.9,143.1,161.9,143.1,161.9z M143.8,160.4c0,0.2,0,0.5-0.2,0.7C144,161.4,144.7,159.9,143.8,160.4z
		 M143.8,145c0.2,0,0.5,0,0.5,0c0-0.2,0-0.2,0.2-0.2c0-0.2,0-0.2,0.2-0.5c0,0-0.2,0-0.5,0c0,0-0.2,0.2-0.5,0.2
		C143.8,144.8,143.8,144.8,143.8,145z M145.2,154.4c0.2,0.7-0.7,0.2-0.7,1C144.7,156.2,146.3,154.4,145.2,154.4z M144.7,158.2
		c-0.5,1,1.1,0.2,0.9-0.2C145.4,157.7,144.9,157.9,144.7,158.2z M149.3,152.5c-0.5,0.5-0.7,0.7-0.7,1.7
		C149.3,154.2,149.8,152.7,149.3,152.5z M149.5,156.4c0,0,0,0.2-0.2,0.2C149.3,156.4,149.3,156.4,149.5,156.4z M151.8,150.7
		c-0.7,0-1.1,0.2-1.4,1C151.1,152.2,151.8,151.7,151.8,150.7z M152.1,134.9c0.2-0.2,0.2-0.2,0.2-0.5c0.2,0,0.2-0.2,0.2-0.2
		C153,133.9,152.7,135.1,152.1,134.9z M153.2,133.9c0-0.5,0.2-1,0.5-1.2C154.1,132.7,153.9,134.2,153.2,133.9z M154.1,59.7
		c-0.2,0.7,0.7,0.7,1.1,0.2C154.8,59.9,154.8,59.4,154.1,59.7z M157.1,142.3c-0.5,0.2-1.6,1.7,0,1.5
		C157.6,143.1,157.8,142.6,157.1,142.3z M157.8,129.7c-0.2,0.2-0.5,0.2-0.7,0.2C157.3,129.7,157.6,129.7,157.8,129.7z M158,144.1
		c0,0.2-0.9,0.7-0.5,0C157.8,144.1,158,144.1,158,144.1z M158.2,142.8c0-0.2,0-0.2,0-0.5c0,0-0.2,0-0.5,0c0,0.2,0,0.2,0,0.5
		C158,142.8,158.2,142.8,158.2,142.8z M158.9,130.9c0.2,0.7-1.4,1.2-0.9,1.7C158.5,132.2,160.3,131.2,158.9,130.9z M158.7,97.8
		c0.2,0,0.5,0,0.5-0.2C158.9,97.5,158.7,97.5,158.7,97.8z M159.8,128.2c-0.5,0,0.2-1,0.2-1C160.8,127.2,160.1,128,159.8,128.2z
		 M160.5,140.6c0.5-0.5,0.7-0.7,1.1-0.7C161.5,140.1,161.2,140.6,160.5,140.6z M161.9,128c0,0.7-1.6,1.2-1.1,2
		C161.2,129.5,162.6,128.5,161.9,128z M171.3,119.1c0-0.2,0-0.2,0-0.5c-0.2,0,0-0.2-0.2-0.2c-0.2,0.5-0.9,0.5-0.9,1.2
		C170.9,119.8,170.6,118.8,171.3,119.1z M172,75.8c-0.2,0.2-0.5,0.7-0.5,1.2C172.2,77,172.7,75.8,172,75.8z M185.1,104.7
		c0.2,0.5-0.7,1.2-1.1,1.7C183.9,105.5,184.6,105.2,185.1,104.7z"/>
</g>
</svg>
