<svg xmlns="http://www.w3.org/2000/svg" width="401.355" height="418.37" viewBox="0 0 401.355 418.37">
  <path id="Path_54" data-name="Path 54" d="M-11267.789,190.538c-14.573,0-26.437-2.547-38.468-8.257-11.249-5.338-22.231-13.238-35.261-23.458-9.826-9.039-23.416-21.874-32.361-31.688-5.025-5.512-14.927-15.885-14.822-15.959-1.616-1.509-3.264-3.044-4.662-4.346l-1.461-1.362-.654-.611-.021-.019c-16.392-15.278-31.875-29.709-46.854-44.791a583.173,583.173,0,0,1-43.22-48.107c-12.011,12.534-17.4,27.506-16.962,47.118.869,32.6,24.371,65.5,74.916,65.5,6.446,0,17.4-2.862,27.255-7.122l47.329,46.032a167.016,167.016,0,0,1-34.117,17.044,164.185,164.185,0,0,1-27.427,7.3,184.08,184.08,0,0,1-31.886,2.71,203.506,203.506,0,0,1-35.966-3.047,152.456,152.456,0,0,1-29.743-8.432,117.651,117.651,0,0,1-42.605-28.749,111,111,0,0,1-13.759-18.186,114.02,114.02,0,0,1-9.324-19.311A112.842,112.842,0,0,1-11585,75.082a104.768,104.768,0,0,1,1.472-18.643,96.81,96.81,0,0,1,4.472-16.794,99.263,99.263,0,0,1,7.021-15.081,110.945,110.945,0,0,1,9.123-13.505,145.87,145.87,0,0,1,22.771-22.847A244.66,244.66,0,0,1-11514.315-30a136.564,136.564,0,0,1-12.6-27.621,105.561,105.561,0,0,1-4.83-32.218,131.9,131.9,0,0,1,1.638-21.472,87.178,87.178,0,0,1,5.887-20.489,66.409,66.409,0,0,1,11.6-18.148,68.5,68.5,0,0,1,18.771-14.456c12.238,2.936,33.345,8.921,37.2,16.014a3.591,3.591,0,0,1,.113,3.111c-.914,2.391-3.943,5.231-9,8.443a136.5,136.5,0,0,1-15.915,8.368c-10.242,4.69-20.031,8.276-21.89,8.947l-.021.008.057-.011.057-.01c1.508-.261,9.528-1.632,19.323-2.98,9.94-1.37,23.813-3,33.45-3,5.712,0,9.4.567,10.965,1.686a4.218,4.218,0,0,1,1.89,3.445,10.291,10.291,0,0,1-1.893,5.431,36.373,36.373,0,0,1-4.341,5.492,70.217,70.217,0,0,1-6.343,5.931l-.028.023h.785c-2.465,2.966-3.613,7.458-3.613,14.139,0,10.319,3.575,19.848,11.955,31.863,8.13,11.653,20.783,25.779,41.289,47.77,23.156,25.381,70.144,71.027,75.426,76.148l.063.062c.538-.385,13.636-9.784,49.363-40.263,15.983-14.9,29.764-29.283,38.509-38.725,8.882-9.6,14.585-16.268,15.206-17l.018-.021c0,.014-.011.029-.017.046l-.013.03c-.988,2.415-10,24.3-21.884,49.049-7.457,15.529-14.664,29.366-21.423,41.126-8.448,14.7-16.221,26.187-23.1,34.145,45.8,40.418,83.242,68.757,102.718,77.749-1.358,1.608-4.272,3.519-8.205,5.382a101.959,101.959,0,0,1-16.525,5.867c-11.206,3.036-30.05,6.655-56.185,6.655C-11266.59,190.533-11267.219,190.538-11267.789,190.538Zm-86.8-241.889h0c-5.339-5.2-10.514-12.553-15.992-20.341l-.008-.011-.009-.012-.007-.009c-6.244-8.874-12.7-18.051-20.127-25.123-8.44-8.037-16.8-11.944-25.568-11.944-2.271,0-4.419-.019-6.315-.035h-.012l-.3,0c-1.724-.014-3.352-.027-4.925-.027a93.5,93.5,0,0,0-10.318.43,45.344,45.344,0,0,0,5.635-9.612c1.578-3.928,1.632-6.968.16-9.036-1.705-2.388-6.562-3.6-14.436-3.6a149.952,149.952,0,0,0-22.49,2.157l-.009,0,.008-.005.01,0a110.184,110.184,0,0,0,10.752-5.148,56.846,56.846,0,0,0,8-5.193c2.6-2.081,4.244-4.04,4.888-5.824a4.367,4.367,0,0,0-.207-3.7c-1.061-1.961-3.577-4.134-7.48-6.458a97.359,97.359,0,0,0-11.912-5.824c-3.085-1.293-6.472-2.594-10.068-3.867-6.628-1.3-19.107-4.018-28.22-7.568a62.251,62.251,0,0,1-13.862-7.442,33.978,33.978,0,0,1-4.517-3.8,34.512,34.512,0,0,0,6.566,2.576,102.148,102.148,0,0,0,21.616,3.765c2.5.2,5.212.3,8.057.3a199.115,199.115,0,0,0,34.8-3.6c-2.8-1.764-5.375-3.466-7.644-5.056a135.068,135.068,0,0,1-20.95-18.049,76.5,76.5,0,0,1-6.761-8.1c.192.1,20.291,10.993,39.059,16.794a59.17,59.17,0,0,0,19.243,2.9,41.734,41.734,0,0,1,9.41.842c-.429-.59-.9-1.252-1.4-1.965a135.075,135.075,0,0,1-13.512-24.128,77.458,77.458,0,0,1-3.581-9.927c.146.164,15.311,17.273,30.959,29.141a59.134,59.134,0,0,0,17.089,9.3c4.919,1.848,9.164,3.443,15.213,9.538a47.424,47.424,0,0,1,7.955,10.845c3.365-2.336,6.925-5.839,11.2-11.022,4.969,28.993,19.525,57.241,30.862,75.833a301.721,301.721,0,0,0,23.649,33.735l-14.133,12.063h-.01c-.157,0-.6,0-1.275,0-3.714,0-13.3.087-22.129.893a72.05,72.05,0,0,0-11.824,1.861c-3.408.936-5.138,2.1-5.141,3.457h0Z" transform="translate(11585.502 227.332)" fill="#eda01b" stroke="rgba(0,0,0,0)" stroke-width="1"/>
</svg>
