<?xml version="1.0" encoding="utf-8"?>
<!-- Generator: Adobe Illustrator 26.0.3, SVG Export Plug-In . SVG Version: 6.00 Build 0)  -->
<svg version="1.1" id="Layer_1" xmlns="http://www.w3.org/2000/svg" xmlns:xlink="http://www.w3.org/1999/xlink" x="0px" y="0px"
	 viewBox="0 0 1200 1200" style="enable-background:new 0 0 1200 1200;" xml:space="preserve">
<style type="text/css">
	.st0{fill:#ffffff;}
</style>
<path class="st0" d="M1200,417c-2.3,16.6-4.4,33.1-6.7,49.7c-11.5,75.8-38.7,148.3-79.7,213c-60,98.6-140.2,180-227.3,255.4
	c-113,95.1-233.7,180.6-360.8,255.8c-2.8-5.8-5.4-11.2-7.9-16.7c-56-124.2-134.3-237-231-332.9c-50.5-50.5-102.5-99.7-152.8-150.5h0
	C93.1,651.4,59.6,605,35,553.9C5.9,488.3-5.4,416.2,2.2,344.9c3.2-51.4,19.8-101,48-144c19.6-28.7,44.8-53.2,74.1-71.9
	s62.1-31.3,96.4-36.9c85.1-18.8,174.1-6.3,250.8,35.2c44.6,23.3,82.3,57.8,109.6,100.1l10.6-19.7h0c23.9-47,55.6-89.7,93.6-126.2
	c27.7-26.6,60.9-46.8,97.3-58.9S857.6,6.4,895.7,11c77.7,6.5,150.4,41,204.6,97c51.3,53.2,84.6,121.2,95.2,194.4
	c1.4,9.1,3.2,18.2,4.8,27.4L1200,417z"/>
</svg>
