<?xml version="1.0" encoding="UTF-8"?>
<svg width="1200pt" height="1200pt" version="1.1" viewBox="0 0 1200 1200" xmlns="http://www.w3.org/2000/svg">
 <path d="m960 210h-720c-33.148 0-60 26.852-60 60v450c0 33.148 26.852 60 60 60h383.85l205.5 205.65c2.8477 2.8516 6.75 4.3516 10.648 4.3516 1.9492 0 3.8984-0.30078 5.6992-1.1992 5.6992-2.25 9.3008-7.8008 9.3008-13.801v-195h105c33.148 0 60-26.852 60-60v-450c0-33.148-26.852-60-60-60zm-390 285c0 0.60156 0 14.102-3.8984 33-7.9531 39.602-39.453 132-161.1 132-6.75 0-12.602-4.5-14.398-10.949-1.8008-6.6016 0.89844-13.5 6.75-16.949 1.9492-1.1992 46.648-29.102 62.398-92.102h-84.75c-8.25 0-15-6.75-15-15v-180c0-8.25 6.75-15 15-15h180c8.25 0 15 6.75 15 15zm270 0c0 0.60156 0 14.102-3.8984 33-7.9531 39.602-39.453 132-161.1 132-6.75 0-12.602-4.5-14.398-10.949-1.8008-6.6016 0.89844-13.5 6.75-16.949 1.9492-1.1992 46.648-29.102 62.398-92.102h-84.75c-8.25 0-15-6.75-15-15v-180c0-8.25 6.75-15 15-15h180c8.25 0 15 6.75 15 15z" fill="#ffffff"/>
</svg>
