<?xml version="1.0" encoding="UTF-8"?>
<svg width="1200pt" height="1200pt" version="1.1" viewBox="0 0 1200 1200" xmlns="http://www.w3.org/2000/svg">
 <path d="m272.04 600c0 86.98 34.555 170.4 96.059 231.9s144.92 96.059 231.9 96.059 170.4-34.555 231.9-96.059 96.059-144.92 96.059-231.9-34.555-170.4-96.059-231.9-144.92-96.059-231.9-96.059c-86.969 0.03125-170.37 34.598-231.87 96.094-61.496 61.496-96.062 144.9-96.094 231.87zm331.08-242.04c65.02 0 127.38 25.828 173.35 71.805 45.977 45.977 71.809 108.33 71.809 173.36 0 65.02-25.832 127.38-71.809 173.35-45.977 45.977-108.33 71.809-173.35 71.809zm20.879-153.24v-147.12c0.50391-7.6211-2.1719-15.109-7.3906-20.684s-12.512-8.7383-20.148-8.7383c-7.6367 0-14.93 3.1641-20.148 8.7383s-7.8945 13.062-7.3906 20.684v147.12c0.62109 9.4102 6 17.848 14.266 22.383 8.2695 4.5312 18.277 4.5312 26.543 0 8.2656-4.5352 13.648-12.973 14.27-22.383zm376.44 29.039v0.003907c6.5-7.0547 8.875-16.98 6.2656-26.211-2.6094-9.2344-9.8242-16.449-19.055-19.059-9.2344-2.6055-19.16-0.23438-26.211 6.2695l-103.56 104.04c-6.5 7.0547-8.875 16.977-6.2656 26.211 2.6094 9.2305 9.8242 16.445 19.055 19.055 9.2344 2.6094 19.156 0.23438 26.211-6.2656zm-5.1602 390.24h147.12c7.6211 0.50391 15.109-2.1719 20.684-7.3906s8.7383-12.512 8.7383-20.148c0-7.6367-3.1641-14.93-8.7383-20.148s-13.062-7.8945-20.684-7.3906h-147.12c-9.4102 0.62109-17.848 6-22.383 14.266-4.5312 8.2695-4.5312 18.277 0 26.543 4.5352 8.2656 12.973 13.648 22.383 14.27zm-133.08 233.88c-5.1953 5.1602-8.1172 12.18-8.1172 19.5 0 7.3242 2.9219 14.344 8.1172 19.5l104.04 104.04v0.003906c5.1914 5.1367 12.199 8.0156 19.5 8.0156 7.3047 0 14.312-2.8789 19.5-8.0156 5.1992-5.1602 8.1211-12.18 8.1211-19.5 0-7.3242-2.9219-14.344-8.1211-19.5l-104.04-104.04c-5.1562-5.1953-12.176-8.1172-19.5-8.1172-7.3203 0-14.34 2.9219-19.5 8.1172zm-286.2 137.4v147.12c-0.50391 7.6211 2.1719 15.109 7.3906 20.684s12.512 8.7383 20.148 8.7383c7.6367 0 14.93-3.1641 20.148-8.7383s7.8945-13.062 7.3906-20.684v-147.12c-0.62109-9.4102-6-17.848-14.266-22.383-8.2695-4.5312-18.277-4.5312-26.543 0-8.2656 4.5352-13.648 12.973-14.27 22.383zm-376.92-29.043c-5.1445 5.1875-8.0234 12.199-8.0078 19.504 0.019532 7.3008 2.9297 14.301 8.0977 19.465 5.1641 5.1602 12.168 8.0664 19.473 8.0742 7.293 0.03125 14.297-2.8672 19.438-8.043l104.04-104.04h0.003906c6.5-7.0547 8.875-16.977 6.2656-26.211-2.6094-9.2305-9.8242-16.445-19.055-19.055-9.2344-2.6094-19.156-0.23438-26.211 6.2656zm-169.08-363.12c0.03125 7.2969 2.9531 14.289 8.125 19.438 5.1719 5.1484 12.176 8.043 19.477 8.043h147.12c9.4102-0.62109 17.848-6.0039 22.383-14.27 4.5312-8.2656 4.5312-18.277 0-26.543-4.5352-8.2656-12.973-13.648-22.383-14.27h-147.12c-7.3203 0-14.34 2.9102-19.52 8.0859-5.1758 5.1758-8.082 12.195-8.082 19.516zm307.8-261c5.1953-5.1602 8.1172-12.18 8.1172-19.5 0-7.3242-2.9219-14.344-8.1172-19.5l-104.04-104.04v-0.003906c-7.0547-6.5-16.98-8.875-26.211-6.2656-9.2344 2.6094-16.449 9.8242-19.059 19.059-2.6055 9.2305-0.23438 19.156 6.2695 26.207l104.04 104.04v0.003906c5.1875 5.1367 12.195 8.0156 19.5 8.0156 7.3008 0 14.309-2.8789 19.5-8.0156z" fill="#FFFFFF"/>
</svg>
