<?xml version="1.0" encoding="UTF-8"?>
<svg width="1200pt" height="1200pt" version="1.1" viewBox="0 0 1200 1200" xmlns="http://www.w3.org/2000/svg">
 <g fill="#ffffff">
  <path d="m685.2 639.6-96-205.2c24-31.199 37.199-69.602 37.199-111.6 0-84-55.199-154.8-130.8-178.8l0.003906-73.199c0-13.199-10.801-24-24-24h-67.199c-13.199 0-24 10.801-24 24l-0.003906 73.199c-74.398 24-128.4 94.801-128.4 177.6 0 42 14.398 80.398 37.199 111.6l-114 244.8c-8.3984-6-16.801-12-24-19.199-18-15.602-45.602-13.199-60 4.8008-15.602 18-13.199 44.398 4.8008 60 13.199 12 27.602 22.801 43.199 32.398l-70.801 151.2c-4.8008 12-7.1992 25.199-4.8008 38.398l20.402 122.4c2.3984 16.801 25.199 19.199 32.398 3.6016l123.6-264c48 18 102 28.801 156 33.602v25.199c0 24 19.199 43.199 43.199 43.199s42-19.199 42-43.199v-25.199c55.199-3.6016 106.8-15.602 154.8-32.398zm-246-391.2c40.801 0 73.199 33.602 73.199 73.199 0 40.801-33.602 74.398-73.199 74.398-40.801 0-73.199-33.602-73.199-74.398 0-39.598 32.398-73.199 73.199-73.199zm42 506.4v-21.602c0-24-19.199-43.199-42-43.199-24 0-43.199 19.199-43.199 43.199v21.602c-42-3.6016-82.801-12-120-25.199l106.8-229.2c18 6 36 8.3984 56.398 8.3984 19.199 0 38.398-2.3984 56.398-8.3984l106.8 229.2c-37.199 14.398-78 22.797-121.2 25.199z"/>
  <path d="m1116 76.801-159.6-45.602c-7.1992-2.3984-15.602-1.1992-22.801 2.3984-7.1992 3.6016-12 10.801-14.398 18l-295.2 1034.4c-2.3984 7.1992-1.1992 15.602 2.3984 22.801 3.6016 7.1992 10.801 12 18 14.398l159.6 45.602c2.3984 1.1992 6 1.1992 8.3984 1.1992 13.199 0 25.199-8.3984 28.801-21.602l24-82.801-60-16.801c-16.801-4.8008-26.398-22.801-21.602-39.602 4.8008-16.801 22.801-26.398 39.602-21.602l60 16.801 28.801-100.8-60-16.801c-16.801-4.8008-26.398-22.801-21.602-39.602 4.8008-16.801 22.801-26.398 39.602-21.602l60 16.801 28.801-100.8-60-16.801c-16.801-4.8008-26.398-22.801-21.602-39.602 4.8008-16.801 22.801-26.398 39.602-21.602l60 16.801 28.801-100.8-60-16.801c-16.801-4.8008-26.398-22.801-21.602-39.602 4.8008-16.801 22.801-26.398 39.602-21.602l60 16.801 28.801-100.8-60-16.801c-16.801-4.8008-26.398-22.801-21.602-39.602 4.8008-16.801 22.801-26.398 39.602-21.602l60 16.801 28.801-100.8-60-16.801c-16.801-4.8008-26.398-22.801-21.602-39.602 4.8008-16.801 22.801-26.398 39.602-21.602l60 16.801 24-82.801c-0.003906-13.176-9.6016-29.973-25.203-34.773z"/>
 </g>
</svg>
