<?xml version="1.0" encoding="UTF-8"?>
<svg width="1200pt" height="1200pt" version="1.1" viewBox="0 0 1200 1200" xmlns="http://www.w3.org/2000/svg">
 <path d="m243.03 343.05h629.32l-662-97.953 10.914-73.73c3.7578-25.512 99.371-28.348 221.87-18.129l13.777-93.23 339.37 50.203-13.805 93.219c120.26 25.727 210.87 56.098 207.09 81.625l-10.926 73.73-21.684-3.2188v675.39c0 155.85-713.93 131.32-713.93 10.844v-698.75zm253.15-229.37 246.97 36.539-6.5195 43.938c-79.172-15.266-166.73-28.219-247-36.555zm-133.16 351.91h84.402v551.86h-84.402zm194.77 0h84.402v551.86h-84.402zm194.77 0h84.402v551.86h-84.402z" fill="#ffffff" fill-rule="evenodd"/>
</svg>
