<?xml version="1.0" encoding="utf-8"?>
<!-- Generator: Adobe Illustrator 26.0.3, SVG Export Plug-In . SVG Version: 6.00 Build 0)  -->
<svg version="1.1" xmlns="http://www.w3.org/2000/svg" xmlns:xlink="http://www.w3.org/1999/xlink" x="0px" y="0px"
	 viewBox="0 0 100 100" style="enable-background:new 0 0 100 100;" xml:space="preserve">
<style type="text/css">
	.st0{fill:#002337;}
</style>
<g id="Layer_2">
</g>
<g id="Layer_1">
	<g>
		<path class="st0" d="M47.2,87.4c-18.5-1.3-33.5-16.4-34.6-35C11.3,30.6,28.5,12.5,50,12.5c14.8,0,27.6,8.6,33.7,21.1
			c0.3,0.5,0.8,0.9,1.4,0.9h7.6c1.1,0,1.8-1.1,1.4-2.1C86.7,14.3,68.6,1.6,47.7,2.6c-23.6,1.1-43,19.8-45,43.3
			c-2.4,28,19.7,51.6,47.2,51.6c19.9,0,37.1-12.4,44-29.9c0.4-1-0.3-2.1-1.4-2.1H85c-0.6,0-1.1,0.3-1.4,0.9
			C77.2,79.6,63.1,88.5,47.2,87.4z"/>
		<path class="st0" d="M94.6,42.5H59.9V30.9c0-1.3-0.7-2.4-1.8-3s-2.5-0.4-3.5,0.3L28.7,47.3c-0.8,0.6-1.3,1.6-1.3,2.7
			c0,1.1,0.5,2,1.3,2.7l25.8,19.1c0.6,0.4,1.3,0.7,2,0.7c0.5,0,1-0.1,1.5-0.4c1.1-0.6,1.8-1.7,1.8-3V57.5h34.7
			c1.6,0,2.9-1.3,2.9-2.9v-9.2C97.5,43.8,96.2,42.5,94.6,42.5z"/>
	</g>
</g>
</svg>
