<?xml version="1.0" encoding="UTF-8"?>
<svg width="1200pt" height="1200pt" version="1.1" viewBox="0 0 1200 1200" xmlns="http://www.w3.org/2000/svg">
 <path d="m674.04 339.48 286.32 76.68c24 6.4805 43.32 22.199 54.961 42.359 11.762 20.281 15.719 44.879 9.2383 69l-112.8 421.08c-6.4805 24.121-22.199 43.441-42.359 55.078-20.281 11.641-44.879 15.602-68.879 9.2383l-286.32-76.801c-24.238-6.3594-43.559-22.199-55.078-42.359-8.0391-13.68-12.359-29.52-12.238-45.961l-47.281 12.719c-24.121 6.4805-48.719 2.3984-68.879-9.2383-20.281-11.641-36-30.961-42.48-55.078l-112.8-421.08c-6.4805-24.121-2.5195-48.719 9.1211-68.879 11.762-20.281 31.078-36 55.078-42.359l286.32-76.801c24.121-6.4805 48.719-2.3984 68.879 9.2383 20.16 11.641 36 30.961 42.359 55.078l22.922 85.559c4.6797 0.48047 9.2383 1.3203 13.922 2.5195zm-140.76-125.04-286.32 76.801c-16.559 4.4414-29.879 15.238-37.801 29.039-8.0391 13.922-10.801 30.84-6.3594 47.52l112.92 421.08c4.4414 16.68 15.238 30 29.039 37.922 13.922 8.0391 30.84 10.801 47.398 6.3594l286.32-76.801c16.68-4.4414 30-15.238 37.922-29.039 8.0391-13.922 10.801-30.84 6.3594-47.52l-112.92-421.08c-4.4414-16.68-15.238-30-29.16-37.922-13.801-8.0391-30.719-10.801-47.398-6.3594z" fill="#002236" fill-rule="evenodd"/>
</svg>
