<?xml version="1.0" encoding="utf-8"?>
<!-- Generator: Adobe Illustrator 26.5.0, SVG Export Plug-In . SVG Version: 6.00 Build 0)  -->
<svg version="1.1" id="Layer_1" xmlns="http://www.w3.org/2000/svg" xmlns:xlink="http://www.w3.org/1999/xlink" x="0px" y="0px"
	 viewBox="0 0 256 256" style="enable-background:new 0 0 256 256;" xml:space="preserve">
<style type="text/css">
	.st0{fill:#002236;}
	.st1{opacity:0.5;fill:#002236;enable-background:new    ;}
</style>
<path class="st0" d="M52.5,25v171.6l92.7,34.3h58.3V25H52.5z M80.1,196.2c4.8-2.5,11-6.6,20.5-13.3l33.6,33.6L80.1,196.2z
	 M193.2,220.7H152l-51.5-51.5c-24,20.6-27.5,20.6-37.7,20.6V35.4h130.4V220.7z"/>
<rect x="70.1" y="42.5" class="st1" width="41.5" height="15.9"/>
<rect x="70.1" y="63.3" class="st1" width="41.5" height="100.8"/>
<rect x="115.8" y="42.5" class="st1" width="70" height="15.9"/>
<rect x="116.8" y="63.3" class="st1" width="70" height="15.9"/>
<rect x="116.8" y="84.2" class="st1" width="70" height="15.9"/>
<rect x="116.8" y="105" class="st1" width="70" height="15.9"/>
<rect x="116.8" y="126.6" class="st1" width="70" height="15.9"/>
<rect x="116.8" y="148.2" class="st1" width="70" height="15.9"/>
<polygon class="st1" points="186.7,185.8 132.8,185.8 116.8,169.8 186.7,169.8 "/>
<polygon class="st1" points="186.7,207.3 152.8,207.3 136.8,191.4 186.7,191.4 "/>
</svg>
