<?xml version="1.0" encoding="UTF-8"?>
<svg width="1200pt" height="1200pt" version="1.1" viewBox="0 0 1200 1200" xmlns="http://www.w3.org/2000/svg">
 <path d="m600 385.36v389.64c0 13.809-11.191 25-25 25s-25-11.191-25-25v-389.64l-157.32 157.32c-9.7617 9.7656-25.59 9.7656-35.352 0-9.7656-9.7617-9.7656-25.59 0-35.352l200-200c9.7617-9.7656 25.59-9.7656 35.352 0l200 200c9.7656 9.7617 9.7656 25.59 0 35.352-9.7617 9.7656-25.59 9.7656-35.352 0zm-225 614.64c-124.27 0-225-100.73-225-225v-400c0-124.27 100.73-225 225-225h400c124.27 0 225 100.73 225 225v400c0 124.27-100.73 225-225 225zm0-50h400c96.648 0 175-78.352 175-175v-400c0-96.648-78.352-175-175-175h-400c-96.648 0-175 78.352-175 175v400c0 96.648 78.352 175 175 175z" fill="#002236"/>
</svg>
