<?xml version="1.0" encoding="utf-8"?>
<!-- Generator: Adobe Illustrator 26.5.0, SVG Export Plug-In . SVG Version: 6.00 Build 0)  -->
<svg version="1.1" xmlns="http://www.w3.org/2000/svg" xmlns:xlink="http://www.w3.org/1999/xlink" x="0px" y="0px"
	 viewBox="0 0 256 256" style="enable-background:new 0 0 256 256;" xml:space="preserve">
<style type="text/css">
	.st0{display:none;}
	.st1{display:inline;fill:#FFFFFF;stroke:#231F20;stroke-miterlimit:10;}
	.st2{fill:#002337;}
	.st3{fill:#E7FBFB;}
	.st4{fill:#043C50;}
</style>
<g id="Layer_1" class="st0">
	<circle class="st1" cx="128" cy="128" r="128"/>
</g>
<g id="Layer_2">
	<g>
		<path class="st2" d="M192.1,32.4v151.7H90.7V32.4H192.1 M194.8,20.4H88c-5.2,0-9.3,4.2-9.3,9.3v157c0,5.2,4.2,9.3,9.3,9.3h106.8
			c5.2,0,9.3-4.2,9.3-9.3v-157C204.1,24.6,199.9,20.4,194.8,20.4L194.8,20.4z"/>
	</g>
	<g>
		<path class="st3" d="M44.3,215.4c-1.8,0-3.3-1.5-3.3-3.3v-157c0-1.8,1.5-3.3,3.3-3.3h106.8c1.8,0,3.3,1.5,3.3,3.3v157
			c0,1.8-1.5,3.3-3.3,3.3H44.3z"/>
		<path class="st2" d="M148.5,57.7v151.7H47V57.7H148.5 M151.1,45.7H44.3c-5.2,0-9.3,4.2-9.3,9.3v157c0,5.2,4.2,9.3,9.3,9.3h106.8
			c5.2,0,9.3-4.2,9.3-9.3v-157C160.5,49.9,156.3,45.7,151.1,45.7L151.1,45.7z"/>
	</g>
	<g>
		<path class="st4" d="M108.5,119.4c0,0.2,0.2,0.2,0.2,0c3.4,0,9.3-0.4,13.5-0.6c0,0.2-0.2,0.2-0.2,0.4c1.8,0.2,2.8,0,4.4,0.2
			c-0.6,0.8-2,0.2-2.6,1c0.2,0.2,1,0.4,0.8,1c1.6-1,2.4,0.8,4,0.2c0.8,1.4,3,1,5.1,1c0.4,0,0,0.8-0.2,1c0.8,0.2,1.2-0.4,1,0.6
			c1.8-0.2,4,0.6,4,2.4c-3.2,2-6.5,2.2-10.1,4c-2,0-4.4,0-5.9,1c-8.7,1.2-14.4,1.8-22.4,2.4c-1.2,0-1.2,1.6-2.4,2
			c-2.6,5.3-5.7,9.7-8.7,14.8c-2.4,2.8-4.2,7.1-6.3,10.7c0.6-2.8,3.4-6.3,4-9.1c-0.2,0.2-0.8,0.8-1,1c-0.4,0-0.2-0.4,0.2-0.8
			c-1.6,2.4-4,4.9-5.7,7.9c-0.2,0-0.4,0.2-0.8,0.2c-0.4,0.6,0.2,0.6,0,1.2c-3,0.2-3.8,4-4.6,5.9c-1-1,1-3,0.4-3.8
			c-1.2,1.6-1.8,3.2-2.2,4.9c-0.4,0,0-1-0.8-0.8l0.2-0.2c-0.2,0-0.4,0.2-0.2,0.2c-0.8,1.6-1.4,3-3.2,3.6c0,0.4,0,0.8-0.2,1.2
			c-2.4,1.2-3.6,4-6.1,5.5c-0.6-3.4,0.6-6.9,1.2-9.5c0.2-0.4,1-1,0-1c0.2-0.6,1-1,1-1.4c0.2,0,0.4,0,0.4-0.2c0-0.4-0.2-0.4-0.2-0.6
			c0.6-3.2,2-5.5,3.2-8.5c2.2-1.2,2.6-5.5,5.3-6.7c0.4-1.6,0.6-2.2,2.2-3.6c-0.2-0.8-0.8,1-1,0.2c2.4-2.4,3.8-5.1,5.7-8.1
			c0.2,0.6-0.8,1.8-1,3c1.2-1.2,1.6-3.4,2.6-4.7c-1.2-0.4-1.2,1-2.2,1c0,0.8-0.2,1.4-1,1.6c0-0.4,0-0.6,0.2-1
			c-0.4,0.2-0.4,1.2-1.2,1c0.2-0.6,1-1.2,1-2.2c0.6,0.6,1.8-0.2,2.2-0.8c0-0.8-1.6,0.4-1.2-0.8c0.8,0.2,1.2,0.2,1.6-0.2
			c-6.5,0-12.9,1.2-19.4,1.2c-0.2,0-0.2,0.4-0.2,0.6c-0.8-1.4-3.2,0.4-4.9-0.6c0.4-0.4,0.8-0.8,1-1.2c-0.4,0,0-0.8-0.6-0.8
			c2.8-11.5,14.4-13.7,22.6-13.9c3.4-0.8,6.3-0.6,8.7-0.8c1.2-1.2,2.2-3,3.2-4.7c0.2,1-0.8,2-1.2,2.8c0.6,0.2,0.8-0.6,1.4-0.8
			c0.4-0.8-0.4-0.4-0.2-1c0.6-0.4,0.6-0.8,1.2-0.4c0.6-1.4,1.4-2.2,1.6-3.8c0.6,0,0.6-0.8,1.4-0.6c1.6-1.8,2-3.8,3-5.9
			c0.4,0.2,0.4-0.4,0.6-0.6c1.4,0.2,1.8-0.8,1.8-1.8c1.4-1.8,2.2-4.6,4-6.3c0-0.8-0.2-1.6,0.2-2.2c-0.8,0.2-1.2,0.8-1.6,1.4
			c0.6-2,3-4.2,4-6.5c0.4,0.6,1,0,1.2,0.6c0.8-0.2-0.2-0.6,0.6-1c0.6-0.2,1.2-0.4,1-1.2c1,0.4,1.8,0.8,2.8,1c0.6-0.4-1-0.4-0.6-1.2
			c0.6,0.2,1.4,0.2,1,1.2c1.8-0.6,1.4,1.4,2.8,1.4c0.2,0.8-0.8,0.4-0.8,0.8c0.8,0.6,2.2,0.2,1.6,2c1,0,0.6,0.8,1.2,1.2
			c0,0.8-0.6,0.8-0.6,1.6c0,0.4,0.8,0.2,0.2,1c0.2,0,0.6-0.2,0.6-0.4c0.2,0.6,0.6,1.4,0.2,2c-0.2,0.2,1-0.2,0,0.6
			c0.6,0.2,0.8,0,1-0.6c-0.6,3.6-3.8,6.5-5.9,9.7c-1.4,2.2-2.4,4.2-4,6.1c-0.4,2-1.6,2.8-2.2,4.4H108.5z M64.6,168.4
			c0,0.4-0.2,0.8,0.4,0.6C65,168.6,64.8,168.4,64.6,168.4z M65,166.5 M67.4,123.3 M71.1,152.4 M71.1,168.2 M72.7,150
			c0,0.2,0,0.2,0,0.4c-0.2,0-0.2,0-0.4,0c0-0.2,0-0.2,0-0.4C72.5,150,72.5,150,72.7,150z M73.3,148.3 M78.1,141.9
			c-0.8,0.4-0.6,1-1.4,1.8c-0.2,0.4,0.2,0,0.6,0c-0.6,1-1.6,0.4-1.8,1.2c-0.2-1.2,0.8-1.8,1.4-3.2C77.3,142.1,77.7,141.5,78.1,141.9
			z M76.9,157.2c0.2,0,0.2,0.4,0.4,0C77.3,157,76.9,157,76.9,157.2z M77.9,140.1 M79.3,137.6 M83.6,135.6c-0.2,0-0.4,0-0.6,0
			c0,0.6-0.8,0.4-0.6,1C83,136.6,83.4,136.2,83.6,135.6z M88,150.4c-0.2,0-0.4,0-0.6,0c-0.2,0.8-0.8,0.6-1,1.4
			C87.4,152,87.2,151,88,150.4z M86.8,139.4 M88.2,148.9c0,0.4-0.6,0.2-0.6,0.8C88,150,88.6,149.1,88.2,148.9z M90.7,145.9
			c-0.8-0.2-1.4,0.4-1.6,0.8C89.7,146.7,90.1,146.1,90.7,145.9z M92.7,142.7c0-0.2,0-0.2,0-0.4c-0.2,0-0.2,0-0.4,0
			c0,0.2,0,0.2,0,0.4C92.5,142.7,92.5,142.7,92.7,142.7z M92.5,115.6c-0.4-0.4,0.4-0.8,0.8-0.4C93.1,115.4,92.7,115.2,92.5,115.6z
			 M93.3,114c-0.6-0.2,0.4-0.6,0.8-0.6C93.9,113.8,93.5,113.6,93.3,114z M93.5,114.8 M94.1,112.6c-0.4-0.6,1-1.4,1.2-2.4
			C96.1,110.3,94.3,112.2,94.1,112.6z M94.5,115.6 M94.7,135.6 M95.7,109.5 M96.9,108.9c-0.2,0.2-0.2,0.2-0.2,0.4
			c-0.2,0-0.2,0-0.4,0c0-0.2,0-0.2,0.2-0.4C96.7,108.9,96.7,108.9,96.9,108.9z M97.3,107.3c-0.2,0.2-0.4,0.2-0.6,0.2
			C96.9,107.3,97.1,107.3,97.3,107.3z M97.7,106.9c0-0.8,0.8-3.2,2.4-3.6C99.6,105.1,98.5,105.7,97.7,106.9z M100.4,104.7
			c0,0.2,0,0.2-0.2,0.4c-0.2,0-0.2,0-0.4,0c0.2-0.2,0.2-0.2,0.2-0.4C100.2,104.7,100.2,104.7,100.4,104.7z M100.4,102 M103.2,98
			c0-0.4,0.4-0.4,0.4-1C104.6,96.8,103.6,98.2,103.2,98z M104.2,97.8c0,0.2,0,0.2-0.2,0.4c-0.2,0-0.2,0-0.4,0
			c0.2-0.2,0.2-0.2,0.2-0.4C104,97.8,104,97.8,104.2,97.8z M104.4,97.2 M106.8,116.8 M109.5,88.9c-0.2-0.6,0.4-0.4,0.8-0.4
			C110.1,88.7,109.9,88.9,109.5,88.9z M117.6,93.4c0.2,0,0.4,0,0.4-0.2C117.8,93.2,117.6,93.2,117.6,93.4z M118.2,101.8 M119.4,98.4
			c-0.6,0-0.8,0-0.8,0.6C119.2,99,119.4,99,119.4,98.4z M119,101.2 M119.8,100.6c-0.2,0.2-0.2,0.8,0.2,0.8
			C120.2,101.2,120.2,100.6,119.8,100.6z M127.1,119.6 M127.7,122.9"/>
	</g>
</g>
</svg>
