<?xml version="1.0" encoding="UTF-8"?>
<svg width="1200pt" height="1200pt" version="1.1" viewBox="0 0 1200 1200" xmlns="http://www.w3.org/2000/svg">
 <path d="m400 950c-39.781 0-77.938-15.805-106.07-43.934s-43.934-66.285-43.934-106.07v-400c0-39.781 15.805-77.938 43.934-106.07s66.285-43.934 106.07-43.934c17.863 0 34.371-9.5312 43.301-25 8.9336-15.469 8.9336-34.531 0-50-8.9297-15.469-25.438-25-43.301-25-66.305 0-129.89 26.34-176.78 73.223-46.883 46.883-73.223 110.47-73.223 176.78v400c0 43.883 11.551 86.996 33.492 125 21.945 38.004 53.504 69.562 91.508 91.508 38.004 21.941 81.117 33.492 125 33.492 17.863 0 34.371-9.5312 43.301-25 8.9336-15.469 8.9336-34.531 0-50-8.9297-15.469-25.438-25-43.301-25zm385.5-164.5c9.4648-9.3867 14.789-22.168 14.789-35.5s-5.3242-26.113-14.789-35.5l-115-114.5 115-114.5c12.684-12.684 17.637-31.168 12.992-48.492-4.6406-17.328-18.172-30.859-35.5-35.5-17.324-4.6445-35.809 0.30859-48.492 12.992l-114.5 115-114.5-115c-12.684-12.684-31.168-17.637-48.492-12.992-17.328 4.6406-30.859 18.172-35.5 35.5-4.6445 17.324 0.30859 35.809 12.992 48.492l115 114.5-115 114.5c-9.4648 9.3867-14.789 22.168-14.789 35.5s5.3242 26.113 14.789 35.5c9.3867 9.4648 22.168 14.789 35.5 14.789s26.113-5.3242 35.5-14.789l114.5-115 114.5 115c9.3867 9.4648 22.168 14.789 35.5 14.789s26.113-5.3242 35.5-14.789zm14.5-635.5c-17.863 0-34.371 9.5312-43.301 25-8.9336 15.469-8.9336 34.531 0 50 8.9297 15.469 25.438 25 43.301 25 39.781 0 77.938 15.805 106.07 43.934s43.934 66.285 43.934 106.07v400c0 39.781-15.805 77.938-43.934 106.07s-66.285 43.934-106.07 43.934c-17.863 0-34.371 9.5312-43.301 25-8.9336 15.469-8.9336 34.531 0 50 8.9297 15.469 25.438 25 43.301 25 43.883 0 86.996-11.551 125-33.492 38.004-21.945 69.562-53.504 91.508-91.508 21.941-38.004 33.492-81.117 33.492-125v-400c0-43.883-11.551-86.996-33.492-125-21.945-38.004-53.504-69.562-91.508-91.508-38.004-21.941-81.117-33.492-125-33.492z" fill="#002337"/>
</svg>
