<?xml version="1.0" encoding="UTF-8"?>
<svg width="1200pt" height="1200pt" version="1.1" viewBox="0 0 1200 1200" xmlns="http://www.w3.org/2000/svg">
 <path d="m115.2 268.26c-1.1211-4.8555-0.26172-9.957 2.3828-14.176 2.6445-4.2227 6.8594-7.2188 11.719-8.3242l103.48-23.586v-0.003906c6.5352-1.4883 13.367 0.62109 17.926 5.5312 4.5586 4.9141 6.1484 11.887 4.1719 18.293-1.9766 6.4023-7.2188 11.266-13.754 12.758l-103.48 23.605c-1.3789 0.3125-2.7891 0.46875-4.1992 0.46875-4.2422-0.007813-8.3555-1.4531-11.668-4.0977-3.3125-2.6445-5.6328-6.3359-6.5781-10.469zm182.68-22.895h0.003906c1.4062 0 2.8086-0.15625 4.1797-0.46875l30.336-6.918c6.5312-1.4961 11.77-6.3594 13.742-12.762 1.9727-6.4062 0.37891-13.375-4.1797-18.281-4.5586-4.9102-11.391-7.0156-17.922-5.5195l-30.32 6.9375c-6.0195 1.3984-10.965 5.6758-13.215 11.434-2.25 5.7539-1.5195 12.25 1.9531 17.363 3.4727 5.1133 9.2422 8.1875 15.426 8.2148zm130.37 455.89c-4.5195 0.03125-8.8906 1.6211-12.375 4.5l-115.69 101.06v-86.812c0-4.9727-1.9766-9.7422-5.4922-13.258-3.5156-3.5156-8.2852-5.4922-13.258-5.4922h-140.25v-342.79l535.69-122.06v234.75l37.5 10.5v-268.88c-0.039062-5.6602-2.5781-11.012-6.9375-14.625-4.4883-3.5586-10.359-4.8711-15.938-3.5625l-573.38 130.69c-4.1016 0.96875-7.7539 3.293-10.375 6.5898-2.6172 3.3008-4.0508 7.3867-4.0625 11.598v376.54c0 4.9727 1.9766 9.7422 5.4922 13.258 3.5156 3.5156 8.2852 5.4922 13.258 5.4922h140.25v109.5c0.027344 3.5781 1.0625 7.0781 2.9844 10.094 1.9258 3.0195 4.6602 5.4336 7.8906 6.9688 2.4805 1.0938 5.1641 1.668 7.875 1.6875 4.5508-0.046875 8.9375-1.707 12.375-4.6875l141.38-123.56h96.375v-37.5zm355.82 221.76h-126.47c-6.6992 0-12.891 3.5703-16.238 9.375-3.3516 5.8008-3.3516 12.945 0 18.75 3.3477 5.8008 9.5391 9.375 16.238 9.375h126.47c6.6953 0 12.887-3.5742 16.238-9.375 3.3477-5.8047 3.3477-12.949 0-18.75-3.3516-5.8047-9.543-9.375-16.238-9.375zm-184.07 0h-15.711c-6.6992 0-12.891 3.5703-16.238 9.375-3.3516 5.8008-3.3516 12.945 0 18.75 3.3477 5.8008 9.5391 9.375 16.238 9.375h15.711c6.6992 0 12.887-3.5742 16.238-9.375 3.3477-5.8047 3.3477-12.949 0-18.75-3.3516-5.8047-9.5391-9.375-16.238-9.375zm482.81-336.92-368.44-104.44v238.35c0 4.9727-1.9766 9.7422-5.4922 13.258-3.5156 3.5156-8.2852 5.4922-13.258 5.4922h-164.06v128.06c0 4.9727 1.9766 9.7422 5.4922 13.258 3.5156 3.5156 8.2852 5.4922 13.258 5.4922h256.12l121.69 115.12c3.4883 3.332 8.1133 5.207 12.938 5.25 2.3672-0.074219 4.707-0.51562 6.9375-1.3125 3.3086-1.3281 6.1719-3.5625 8.2617-6.4492 2.0898-2.8867 3.3203-6.3047 3.5508-9.8633l7.125-102.75h110.62c4.9727 0 9.7422-1.9766 13.258-5.4922 3.5156-3.5156 5.4922-8.2852 5.4922-13.258v-262.73c0.039062-4.0664-1.2617-8.0312-3.6992-11.285-2.4414-3.2539-5.8867-5.6133-9.8008-6.7148zm-543.94-146.25c-4.6758 3.5625-7.3867 9.125-7.3125 15v246.41h145.31v-230.1l-121.5-34.5c-5.6992-1.5195-11.777-0.34375-16.5 3.1875z" fill="#002236"/>
</svg>
