<?xml version="1.0" encoding="UTF-8"?>
<svg width="1200pt" height="1200pt" version="1.1" viewBox="0 0 1200 1200" xmlns="http://www.w3.org/2000/svg">
 <g fill="#002236">
  <path d="m600 750c82.844 0 150-67.156 150-150s-67.156-150-150-150-150 67.156-150 150 67.156 150 150 150z"/>
  <path d="m75.164 640.94c-14.152-25.473-14.152-56.41 0-81.883 102.39-184.32 299.06-309.06 524.87-309.06s422.47 124.73 524.86 309.06c14.152 25.473 14.152 56.41 0 81.883-102.39 184.32-299.06 309.06-524.86 309.06s-422.48-124.73-524.87-309.06zm774.87-40.941c0 138.07-111.93 250-250 250-138.07 0-250-111.93-250-250s111.93-250 250-250c138.07 0 250 111.93 250 250z" fill-rule="evenodd"/>
 </g>
</svg>
