<?xml version="1.0" encoding="UTF-8"?>
<svg width="1200pt" height="1200pt" version="1.1" viewBox="0 0 1200 1200" xmlns="http://www.w3.org/2000/svg">
 <path d="m200 600c0 13.262 5.2695 25.98 14.645 35.355s22.094 14.645 35.355 14.645h379.5l-115 114.5c-9.4648 9.3867-14.789 22.168-14.789 35.5s5.3242 26.113 14.789 35.5c9.3867 9.4648 22.168 14.789 35.5 14.789s26.113-5.3242 35.5-14.789l200-200c4.5508-4.7539 8.1211-10.363 10.5-16.5 5-12.172 5-25.828 0-38-2.3789-6.1367-5.9492-11.746-10.5-16.5l-200-200c-12.684-12.684-31.168-17.637-48.492-12.992-17.328 4.6406-30.859 18.172-35.5 35.5-4.6445 17.324 0.30859 35.809 12.992 48.492l115 114.5h-379.5c-13.262 0-25.98 5.2695-35.355 14.645s-14.645 22.094-14.645 35.355zm650-500h-500c-39.781 0-77.938 15.805-106.07 43.934s-43.934 66.285-43.934 106.07v150c0 17.863 9.5312 34.371 25 43.301 15.469 8.9336 34.531 8.9336 50 0 15.469-8.9297 25-25.438 25-43.301v-150c0-13.262 5.2695-25.98 14.645-35.355s22.094-14.645 35.355-14.645h500c13.262 0 25.98 5.2695 35.355 14.645s14.645 22.094 14.645 35.355v700c0 13.262-5.2695 25.98-14.645 35.355s-22.094 14.645-35.355 14.645h-500c-13.262 0-25.98-5.2695-35.355-14.645s-14.645-22.094-14.645-35.355v-150c0-17.863-9.5312-34.371-25-43.301-15.469-8.9336-34.531-8.9336-50 0-15.469 8.9297-25 25.438-25 43.301v150c0 39.781 15.805 77.938 43.934 106.07s66.285 43.934 106.07 43.934h500c39.781 0 77.938-15.805 106.07-43.934s43.934-66.285 43.934-106.07v-700c0-39.781-15.805-77.938-43.934-106.07s-66.285-43.934-106.07-43.934z" fill="002337"/>
</svg>
