<?xml version="1.0" encoding="UTF-8"?>
<svg width="1200pt" height="1200pt" version="1.1" viewBox="0 0 1200 1200" xmlns="http://www.w3.org/2000/svg">
 <path d="m1200 417c-2.2812 16.559-4.4414 33.121-6.7188 49.68-11.52 75.754-38.652 148.29-79.68 213-60 98.641-140.16 180-227.28 255.36-113.05 95.051-233.73 180.62-360.84 255.84-2.7617-5.7617-5.3984-11.16-7.9219-16.68-55.996-124.15-134.29-236.98-231-332.88-50.52-50.52-102.48-99.719-152.76-150.48h0.003906c-40.75-39.445-74.188-85.805-98.762-136.92-29.109-65.59-40.449-137.68-32.879-209.04 3.2344-51.352 19.777-100.98 48-144 19.566-28.746 44.773-53.215 74.086-71.926s62.121-31.27 96.434-36.914c85.109-18.801 174.14-6.3164 250.8 35.16 44.574 23.305 82.328 57.793 109.56 100.08l10.559-19.68h0.003906c23.941-47.004 55.578-89.672 93.598-126.24 27.652-26.629 60.891-46.758 97.301-58.922s75.074-16.059 113.18-11.398c77.684 6.5039 150.38 40.953 204.6 96.961 51.297 53.234 84.582 121.23 95.16 194.4 1.4414 9.1211 3.2383 18.238 4.8008 27.359zm-631.8-48.84c-3.4688-27.965-11.836-55.098-24.719-80.16-17.277-30.871-40.242-58.191-67.68-80.52-57.719-48-123.48-58.441-194.76-40.441-36.973 9.6602-71.137 27.918-99.719 53.281-35.648 27.73-62.422 65.266-77.039 108-11.195 37.582-12.598 77.402-4.082 115.68 8.7617 50.281 28.559 91.68 75 160.92 41.883 61.742 87.57 120.82 136.8 176.88 53.398 63.238 107.04 126.24 158.04 191.4 31.922 40.68 59.281 84.961 89.281 128.52l8.0391-5.0391c65.16-40.68 114.96-72.719 120.84-76.68 45.48-29.641 148.2-117.84 247.8-248.88 78-102.12 128.76-168.72 152.28-275.04 22.441-101.04 4.1992-165.84 0-180-8.2812-28.078-34.441-113.28-120-160.08-48.996-26.09-105.46-34.559-159.96-24-41.562 8.9883-80.191 28.301-112.32 56.16-39.359 31.801-61.922 67.078-87.961 108-14.719 23.172-28.023 47.219-39.84 72z" fill="#002236"/>
</svg>
