<?xml version="1.0" encoding="utf-8"?>
<!-- Generator: Adobe Illustrator 26.5.0, SVG Export Plug-In . SVG Version: 6.00 Build 0)  -->
<svg version="1.1" id="Layer_1" xmlns="http://www.w3.org/2000/svg" xmlns:xlink="http://www.w3.org/1999/xlink" x="0px" y="0px"
	 viewBox="0 0 256 256" style="enable-background:new 0 0 256 256;" xml:space="preserve">
<style type="text/css">
	.st0{fill:#002236;}
	.st1{opacity:0.5;fill:#002236;enable-background:new    ;}
	.st2{fill:#FFFFFF;}
</style>
<g>
	<path class="st0" d="M52.5,25v171.6l92.7,34.3h58.3V25H52.5z M80.1,196.2c4.8-2.5,11-6.6,20.5-13.3l33.6,33.6L80.1,196.2z
		 M193.2,220.7H152l-51.5-51.5c-24,20.6-27.5,20.6-37.7,20.6V35.4h130.4V220.7z"/>
	<polygon class="st1" points="52.5,63.3 169.6,63.3 156.6,104.3 52.5,104.3 	"/>
	<g>
		<path class="st2" d="M84.6,70c1.9,0,3.5,0.2,4.9,0.7c1.4,0.4,2.5,1.1,3.4,1.8c0.9,0.8,1.5,1.7,2,2.8c0.4,1.1,0.6,2.3,0.6,3.5
			c0,1.3-0.2,2.6-0.7,3.7s-1.1,2.1-2,2.9c-0.9,0.8-2,1.4-3.4,1.9C88,87.8,86.4,88,84.6,88H81v9.4h-5.7V70H84.6z M84.6,83.6
			c1.8,0,3.1-0.4,3.9-1.3c0.8-0.9,1.2-2,1.2-3.5c0-0.7-0.1-1.3-0.3-1.9c-0.2-0.6-0.5-1-0.9-1.4c-0.4-0.4-1-0.7-1.6-0.9
			c-0.6-0.2-1.4-0.3-2.3-0.3H81v9.3H84.6z"/>
		<path class="st2" d="M125.4,83.7c0,2-0.3,3.8-1,5.5c-0.7,1.7-1.6,3.1-2.8,4.3c-1.2,1.2-2.7,2.2-4.4,2.8c-1.7,0.7-3.6,1-5.7,1
			h-10.5V70h10.5c2.1,0,4,0.3,5.7,1c1.7,0.7,3.2,1.6,4.4,2.8c1.2,1.2,2.2,2.7,2.8,4.3C125.1,79.9,125.4,81.7,125.4,83.7z
			 M119.6,83.7c0-1.4-0.2-2.7-0.6-3.9c-0.4-1.1-0.9-2.1-1.6-2.9c-0.7-0.8-1.6-1.4-2.6-1.8c-1-0.4-2.2-0.6-3.4-0.6h-4.8V93h4.8
			c1.3,0,2.4-0.2,3.4-0.6c1-0.4,1.9-1,2.6-1.8c0.7-0.8,1.2-1.8,1.6-2.9C119.4,86.4,119.6,85.1,119.6,83.7z"/>
		<path class="st2" d="M137.2,74.5V82h9.8v4.5h-9.8v10.9h-5.7V70h17.4v4.4H137.2z"/>
	</g>
</g>
</svg>
