<?xml version="1.0" encoding="UTF-8"?>
<svg width="1200pt" height="1200pt" version="1.1" viewBox="0 0 1200 1200" xmlns="http://www.w3.org/2000/svg">
 <path d="m758.7 305.27c-53.988 0-98.242 44.254-98.242 98.242 0 10.465 1.6484 20.746 4.7227 30.23l-162.24 90.211c-16.906-13.727-38.324-22.199-61.641-22.199-53.988 0-98.242 44.254-98.242 98.242s44.254 98.242 98.242 98.242c23.316 0 44.734-8.2344 61.637-21.965l162.48 90.215c-3.0898 9.5078-4.9609 19.5-4.9609 29.996 0 53.988 44.254 98.242 98.242 98.242s98.242-44.254 98.242-98.242-44.254-98.242-98.242-98.242c-27.113 0-51.836 11.332-69.668 29.285l-157.99-87.855c5.3984-12.133 8.5-25.609 8.5-39.676 0-14.145-3.0508-27.488-8.5-39.676l157.75-87.852c17.848 18.094 42.668 29.285 69.902 29.285 53.988 0 98.242-44.254 98.242-98.242s-44.254-98.242-98.242-98.242zm0 45.344c29.484 0 52.898 23.414 52.898 52.898s-23.418 52.898-52.898 52.898c-29.484 0-52.898-23.414-52.898-52.898s23.418-52.898 52.898-52.898zm-317.4 196.48c29.484 0 52.898 23.414 52.898 52.898s-23.418 52.898-52.898 52.898c-29.484 0-52.898-23.414-52.898-52.898s23.418-52.898 52.898-52.898zm317.4 196.48c29.484 0 52.898 23.414 52.898 52.898s-23.418 52.898-52.898 52.898c-29.484 0-52.898-23.414-52.898-52.898s23.418-52.898 52.898-52.898z" fill="#002236"/>
</svg>
