<?xml version="1.0" encoding="utf-8"?>
<!-- Generator: Adobe Illustrator 26.5.0, SVG Export Plug-In . SVG Version: 6.00 Build 0)  -->
<svg version="1.1" id="Layer_1" xmlns="http://www.w3.org/2000/svg" xmlns:xlink="http://www.w3.org/1999/xlink" x="0px" y="0px"
	 viewBox="0 0 256 256" style="enable-background:new 0 0 256 256;" xml:space="preserve">
<style type="text/css">
	.st0{fill:none;stroke:#002337;stroke-width:6;stroke-linejoin:bevel;stroke-miterlimit:10;}
	.st1{opacity:0.2;}
	.st2{fill:#002337;}
</style>
<g>
	<polygon class="st0" points="66.5,96.3 48.9,72.4 54.2,36 91.8,15.4 128.9,36 134,72 117.1,94.7 117.1,109.7 106.2,117 103,99.2 
		102.6,117 95.4,117 91.9,98.2 88.2,117 81,117 82.3,94.3 77.3,117 66.5,109.7 	"/>
	<path class="st0" d="M62.1,60c0.7-3.4,3.1-7.1,7-8.3c3.3-1,6.2,0.3,7.4,0.8c0.9,0.4,6.4,2.8,7.4,8.7c0.6,3.3-0.3,7.5-3.3,9.9
		c-2.2,1.8-4.8,2-6.2,2.1c-1.3,0.1-5.3,0.3-8.7-2.5C62.8,68.2,61.3,64,62.1,60z"/>
	<path class="st0" d="M98.4,57.1c-3.7,5.6-2.3,14,2,16.6c1.5,0.9,3.5,0.9,7.5,0.7c5.6-0.2,8.4-0.2,9.9-2.1c2.2-2.7,0.5-7.2-0.8-10.9
		c-1.6-4.4-3.1-8.5-7-9.7C105.6,50.4,100.7,53.6,98.4,57.1z"/>
	<polyline class="st0" points="112.2,168 193.3,84.4 193.3,70 	"/>
	<line class="st0" x1="200.5" y1="84.4" x2="212.7" y2="84.4"/>
	<path class="st0" d="M99,151.3L190,63l29.2-7.4l-1.7,32.5L126.1,184l-47.3-44.3l-5.8,9.9l58.9,61.3c0,0,8.2-8,7-12.6
		s-7.3-7.4-7.3-7.4"/>
	<polyline class="st0" points="89.6,175.8 52.1,214.8 61.9,229.7 103,190 	"/>
</g>
<g class="st1">
	<path class="st2" d="M128,10c31.5,0,61.2,12.3,83.4,34.6C233.7,66.9,246,96.5,246,128s-12.3,61.2-34.6,83.4
		C189.2,233.7,159.5,246,128,246s-61.2-12.3-83.4-34.6C22.3,189.2,10,159.5,10,128s12.3-61.2,34.6-83.4C66.9,22.3,96.5,10,128,10
		 M128,0C57.3,0,0,57.3,0,128s57.3,128,128,128s128-57.3,128-128S198.7,0,128,0L128,0z"/>
</g>
</svg>
